<svg xmlns="http://www.w3.org/2000/svg" viewBox="0 0 320 320" role="img" aria-label="Avatar planeta">
  <defs>
    <radialGradient id="bg" cx="30%" cy="20%" r="80%">
      <stop offset="0" stop-color="#fef3c7"/>
      <stop offset="0.35" stop-color="#0ea5e9"/>
      <stop offset="1" stop-color="#020617"/>
    </radialGradient>
    <radialGradient id="planet" cx="38%" cy="30%" r="70%">
      <stop offset="0" stop-color="#f8fafc"/>
      <stop offset="0.35" stop-color="#22d3ee"/>
      <stop offset="0.7" stop-color="#2563eb"/>
      <stop offset="1" stop-color="#172554"/>
    </radialGradient>
  </defs>
  <rect width="320" height="320" rx="160" fill="url(#bg)"/>
  <circle cx="160" cy="160" r="78" fill="url(#planet)"/>
  <path fill="#16a34a" d="M113 143c22-22 58-12 73 7-21 5-35 18-42 41-24-6-40-20-31-48zm73-52c22 9 42 28 50 52-19-5-37-3-54 8-4-20-2-40 4-60zm-33 111c19-11 43-13 65-5-15 20-37 34-63 36-8-9-10-19-2-31z"/>
  <path fill="none" stroke="#facc15" stroke-width="14" stroke-linecap="round" d="M55 178c45 32 145 45 214-16"/>
  <path fill="none" stroke="#fde68a" stroke-width="5" stroke-linecap="round" d="M58 169c48 29 142 39 204-13"/>
  <circle cx="74" cy="75" r="5" fill="#f8fafc"/>
  <circle cx="245" cy="80" r="4" fill="#bae6fd"/>
  <circle cx="258" cy="238" r="3" fill="#facc15"/>
</svg>
